# xmcd
#
# Track frame offsets:
#  150
#  29234
#  42422
#  55824
#  68338
#  81091
#  91217
#  102124
#  110694
#  132679
#  150237
#  159582
#  171582
#  184973
#  200893
#
# Disc length: 2827 seconds
#
# Revision: 0
# Processed by: cddbd v1.4PL0 Copyright (c) Steve Scherf et al.
# Submitted via: AltoMP3_Maker 3.0
#
DISCID=d40b090f
DTITLE=Duke Ellington - Duke Ellington Vol. I
DYEAR=1900
DGENRE=
TTITLE0=Happy Go Lucky Local
TTITLE1=Take A Train
TTITLE2=Jam A Ditty
TTITLE3=Far Away Blues
TTITLE4=Perdido
TTITLE5=On The Alamo
TTITLE6=Cross Town
TTITLE7=Tea For Two
TTITLE8=Everything Goes
TTITLE9=I Can´t Belive That You Are In Love With Me
TTITLE10=Tip Top Topic
TTITLE11=Saint Louis Blues
TTITLE12=9:20 Especial
TTITLE13=Just You, Just Me
TTITLE14=How High The Moon
EXTD=
EXTT0=
EXTT1=
EXTT2=
EXTT3=
EXTT4=
EXTT5=
EXTT6=
EXTT7=
EXTT8=
EXTT9=
EXTT10=
EXTT11=
EXTT12=
EXTT13=
EXTT14=
PLAYORDER=
